<svg width="13" height="13" viewBox="0 0 13 13" fill="none" xmlns="http://www.w3.org/2000/svg">
<path d="M12.1916 10.0276C12.1528 9.73479 11.9836 9.48237 11.7273 9.33504L8.71756 7.60451C8.34894 7.39255 7.88129 7.45426 7.5804 7.7547L6.98757 8.34672C6.82982 8.50428 6.58023 8.51823 6.40714 8.37911C5.93979 8.00357 5.47962 7.59027 5.03945 7.15068C4.59929 6.71112 4.18542 6.25162 3.80933 5.78487C3.67003 5.612 3.68396 5.36279 3.84177 5.20522L4.43458 4.6132C4.73544 4.31279 4.7973 3.84583 4.58501 3.47763L2.85209 0.471991C2.70453 0.216069 2.45179 0.0470863 2.15863 0.00835334C1.86544 -0.0304585 1.57736 0.0671895 1.36825 0.27601L0.47498 1.16808C-0.148473 1.7907 -0.158486 2.92958 0.446786 4.37499C1.02879 5.7648 2.11491 7.29475 3.50503 8.683C4.89519 10.0712 6.42725 11.1559 7.819 11.7371C8.53146 12.0346 9.16948 12.1833 9.70817 12.1832C10.2638 12.1832 10.7137 12.025 11.0303 11.7089L11.9236 10.8168C12.1327 10.608 12.2304 10.3203 12.1916 10.0276V10.0276ZM8.52036 7.94655L11.5301 9.67709C11.679 9.76266 11.7773 9.90927 11.7998 10.0793C11.8187 10.222 11.7816 10.3625 11.6974 10.4757L7.69745 8.19603L7.85989 8.0338C8.03461 7.85932 8.30628 7.82346 8.52036 7.94655V7.94655ZM2.10677 0.399656C2.27707 0.422154 2.42386 0.520302 2.50955 0.668944L4.24247 3.67459C4.36578 3.88843 4.32984 4.15967 4.15512 4.33413L4.0059 4.48314L1.7105 0.501882C1.80433 0.432495 1.91655 0.394814 2.03355 0.394814C2.05781 0.394814 2.08229 0.396419 2.10677 0.399656V0.399656ZM10.7508 11.4298C10.2555 11.9244 9.24247 11.9037 7.97148 11.3729C6.62608 10.8111 5.13916 9.75663 3.78454 8.4039C2.42992 7.05114 1.37405 5.56624 0.811435 4.22272C0.279889 2.95345 0.259152 1.94182 0.754467 1.44716L1.4176 0.784906L3.71645 4.77219L3.56228 4.92615C3.2615 5.22654 3.23531 5.70207 3.50139 6.03235C3.88633 6.51009 4.30979 6.98025 4.75994 7.42979C5.21015 7.87935 5.68096 8.30222 6.15933 8.68663C6.49001 8.95234 6.9662 8.92621 7.26706 8.6258L7.40771 8.48534L11.4132 10.7682L10.7508 11.4298V11.4298Z" fill="white"/>
</svg>
